<svg viewBox="0 0 50 50" height="100" y="50%">
	<g
		id="g4001"
		transform="translate(0.20,0.05)"
		style="fill:#aeaeae;fill-opacity:0.20">
		<path
			style="fill:#aeaeae;fill-opacity:0.15686275"
			d="M 15.15,34.31626 C 14.985,34.27009 14.286665,34.087651 13.598145,33.910831 L 12.34629,33.589339 12.248145,29.61967 C 12.137201,25.13232 11.806441,24.106442 9.8349486,22.134949 7.8856815,20.185682 7.8,20.339999 7.8,25.800001 c 0,5.661393 -0.080509,5.757933 -2.4393336,2.925 C -2.3133678,19.508535 1.6152519,5.560988 12.863924,2.086627 28.957003,-2.884019 41.381454,15.816053 30.596322,28.775704 28.439679,31.367173 28.5,31.537555 28.5,22.854451 28.5,12.82511 27.149167,8.7000002 23.864898,8.7000002 23.774204,8.7000002 23.7,14.296155 23.7,21.135899 l 0,12.435899 -1.125,0.312429 c -2.327402,0.64635 -2.175,1.08294 -2.175,-6.230785 0,-7.699881 -0.204759,-8.634131 -2.388994,-10.900237 -2.467072,-2.559544 -2.39148,-2.806158 -2.48185,8.096893 -0.05127,6.185107 -0.184862,9.520522 -0.379156,9.466162 z"
			id="path4007"
			connector-curvature="0" />
		<path
			style="fill:#aeaeae;fill-opacity:0.20"
			d="M 13.604226,33.834358 12.658452,33.529969 12.550611,29.739985 C 12.425583,25.345956 11.907535,23.920776 9.6935235,21.879972 7.5455568,19.900045 7.5015744,19.97676 7.4890611,25.725001 l -0.010938,5.025 L 5.914062,29.090203 C -3.9658449,18.605545 3.5248275,1.5146676 18,1.5146676 c 14.372628,0 21.937692,17.1244274 12.151533,27.5064524 l -1.629655,1.728881 -0.01094,-8.300129 C 28.497888,12.54694 27.929002,10.571494 24.593502,8.8466399 23.370376,8.2141367 23.4,7.9086881 23.4,21.152514 l 0,12.352513 -1.159806,0.347487 c -0.637893,0.191118 -1.234344,0.347487 -1.325446,0.347487 -0.0911,0 -0.210439,-3.081321 -0.265194,-6.84738 L 20.55,20.505241 19.646884,18.740507 C 18.825861,17.136186 16.672714,15 15.876678,15 15.713538,15 15.6,18.93947 15.6,24.600001 c 0,10.668465 0.159995,9.928176 -1.995774,9.234357 z"
			id="path4005"
			connector-curvature="0" />
		<path
			style="fill:#aeaeae;fill-opacity:0.20"
			d="m 13.75388,33.846025 -1.096119,-0.291966 -0.105753,-3.95203 C 12.432535,25.137292 11.780075,23.351544 9.6167334,21.568335 7.5813426,19.890594 7.5017607,20.045878 7.4864748,25.725001 l -0.013527,5.025 L 5.86008,29.002411 C -3.7911327,18.545031 3.769206,1.4805284 18.043303,1.5035607 32.158251,1.5263362 39.684546,18.524364 30.201393,28.962432 L 28.65,30.670045 28.7352,23.096882 C 28.829646,14.701783 28.630324,13.319595 26.979156,10.919705 26.147659,9.7111656 24.461903,8.4000002 23.73959,8.4000002 23.492208,8.4000002 23.4,11.812405 23.4,20.967478 l 0,12.567477 -0.825,0.19677 c -0.45375,0.108222 -1.06125,0.266955 -1.35,0.35274 -0.488362,0.145083 -0.525318,-0.290337 -0.529554,-6.239248 C 20.68976,19.86089 20.297291,18.342784 17.653867,16.080111 15.512491,14.247173 15.6,13.884169 15.6,24.600001 c 0,7.496535 -0.08217,9.593205 -0.375,9.568995 -0.20625,-0.01704 -0.868254,-0.16239 -1.47112,-0.322971 z"
			id="path4003"
			connector-curvature="0" />
	  </g>
	</svg>